15036886
15036887
15036888
15036889
15036890
15036891
15036892
15036893
15036894
15036895
15036896
15036897
15036898
15036899
15036900
15036901
15036902
15036903
15036904
15036905
15036906
15036907
15036908
15036909
15036910
15036911
15036912
15036913
15036914
15036915
15036916
15036917
15036918
15036919
15036920
15036921
15036922
15036923
15036924
15036925
15036926
15036927
15036928
15036929
15036930
15036931
15036932
15036933
15036934
15036935
15036936
15036937
15036938
15036939
15036940
15036941
15036942
15036943
15036944
15036945
15036946
15036947
15036948
15036949
15036950
15036951
15036952
15036953
15036954
15036955
15036956
15036957
15036958
15036959
15036960
15036961
15036962
15036963
15036964
15036965
15036966
15036967
15036968
15036969
15036970
15036971
15036972
15036973
15036974
15036975
15036976
15036977
15036978
15036979
15036980
15036981
15036982
15036983
15036984
15036985
15036986
15036987
15036988
15036989
15036990
15036991
15036992
15036993
15036994
15036995
15036996
15036997
15036998
15036999
15037000
15037001
15037002
15037003
15037004
15037005
15037006
15037007
15037008
15037009
15037010
15037011
15037012
15037013
15037014
15037015
15037016
15037017
15037018
15037019
15037020
15037021
15037022
15037023
15037024
15037025
15037026
15037027
15037028
15037029
15037030
15037031
15037032
15037033
15037034
15037035
15037036
15037037
15037038
15037039
15037040
15037041
15037042
15037043
15037044
15037045
15037046
15037047
15037048
15037049
15037050
15037051
15037052
15037053
15037054
15037055
15037056
15037057
15037058
15037059
15037060
15037061
15037062
15037063
15037064
15037065
15037066
15037067
15037068
15037069
15037070
15037071
15037072
15037073
15037074
15037075
15037076
15037077
15037078
15037079
15037080
15037081
15037082
15037083
15037084
15037085
15037086
15037087
15037088
15037089
15037090
15037091
15037092
15037093
15037094
15037095
15037096
15037097
15037098
15037099
15037100
15037101
15037102
15037103
15037104
15037105
15037106
15037107
15037108
15037109
15037110
15037111
15037112
15037113
15037114
15037115
15037116
15037117
15037118
15037119
15037120
15037121
15037122
15037123
15037124
15037125
15037126
15037127
15037128
15037129
15037130
15037131
15037132
15037133
15037134
15037135
15037136
15037137
15037138
15037139
15037140
15037141
15037142
15037143
15037144
15037145
15037146
15037147
15037148
15037149
15037150
15037151
15037152
15037153
15037154
15037155
15037156
15037157
15037158
15037159
15037160
15037161
15037162
15037163
15037164
15037165
15037166
15037167
15037168
15037169
15037170
15037171
15037172
15037173
15037174
15037175
15037176
15037177
15037178
15037179
15037180
15037181
15037182
15037183
15037184
15037185
15037186
15037187
15037188
15037189
15037190
15037191
15037192
15037193
15037194
15037195
15037196
15037197
15037198
15037199
15037200
15037201
15037202
15037203
15037204
15037205
15037206
15037207
15037208
15037209
15037210
15037211
15037212
15037213
15037214
15037215
15037216
15037217
15037218
15037219
15037220
15037221
15037222
15037223
15037224
15037225
15037226
15037227
15037228
15037229
15037230
15037231
15037232
15037233
15037234
15037235
15037236
15037237
15037238
15037239
15037240
15037241
15037242
15037243
15037244
15037245
15037246
15037247
15037248
15037249
15037250
15037251
15037252
15037253
15037254
15037255
15037256
15037257
15037258
15037259
15037260
15037261
15037262
15037263
15037264
15037265
15037266
15037267
15037268
15037269
15037270
15037271
15037272
15037273
15037274
15037275
15037276
15037277
15037278
15037279
15037280
15037281
15037282
15037283
15037284
15037285
15037286
15037287
15037288
15037289
15037290
15037291
15037292
15037293
15037294
15037295
15037296
15037297
15037298
15037299
15037300
15037301
15037302
15037303
15037304
15037305
15037306
15037307
15037308
15037309
15037310
15037311
15037312
15037313
15037314
15037315
15037316
15037317
15037318
15037319
15037320
15037321
15037322
15037323
15037324
15037325
15037326
15037327
15037328
15037329
15037330
15037331
15037332
15037333
15037334
15037335
15037336
15037337
15037338
15037339
15037340
15037341
15037342
15037343
15037344
15037345
15037346
15037347
15037348
15037349
15037350
15037351
15037352
15037353
15037354
15037355
15037356
15037357
15037358
15037359
15037360
15037361
15037362
15037363
15037364
15037365
15037366
15037367
15037368
15037369
15037370
15037371
15037372
15037373
15037374
15037375
15037376
15037377
15037378
15037379
15037380
15037381
15037382
15037383
15037384
15037385
15037386
15037387
15037388
15037389
15037390
15037391
15037392
15037393
15037394
15037395
15037396
15037397
15037398
15037399
15037400
15037401
15037402
15037403
15037404
15037405
15037406
15037407
15037408
15037409
15037410
15037411
15037412
15037413
15037414
15037415
15037416
15037417
15037418
15037419
15037420
15037421
15037422
15037423
15037424
15037425
15037426
15037427
15037428
15037429
15037430
15037431
15037432
15037433
15037434
15037435
15037436
15037437
15037438
15037439
15037440
15037441
15037442
15037443
15037444
15037445
15037446
15037447
15037448
15037449
15037450
15037451
15037452
15037453
15037454
15037455
15037456
15037457
15037458
15037459
15037460
15037461
15037462
15037463
15037464
15037465
15037466
15037467
15037468
15037469
15037470
15037471
15037472
15037473
15037474
15037475
15037476
15037477
15037478
15037479
15037480
15037481
15037482
15037483
15037484
15037485
15037486
15037487
15037488
15037489
15037490
15037491
15037492
15037493
15037494
15037495
15037496
15037497
15037498
15037499
15037500
15037501
15037502
15037503
15037504
15037505
15037506
15037507
15037508
15037509
15037510
15037511
15037512
15037513
15037514
15037515
15037516
15037517
15037518
15037519
15037520
15037521
15037522
15037523
15037524
15037525
15037526
15037527
15037528
15037529
15037530
15037531
15037532
15037533
15037534
15037535
15037536
15037537
15037538
15037539
15037540
15037541
15037542
15037543
15037544
15037545
15037546
15037547
15037548
15037549
15037550
15037551
15037552
15037553
15037554
15037555
15037556
15037557
15037558
15037559
15037560
15037561
15037562
15037563
15037564
15037565
15037566
15037567
15037568
15037569
15037570
15037571
15037572
15037573
15037574
15037575
15037576
15037577
15037578
15037579
15037580
15037581
15037582
15037583
15037584
15037585
15037586
15037587
15037588
15037589
15037590
15037591
15037592
15037593
15037594
15037595
15037596
15037597
15037598
15037599
15037600
15037601
15037602
15037603
15037604
15037605
15037606
15037607
15037608
15037609
15037610
15037611
15037612
15037613
15037614
15037615
15037616
15037617
15037618
15037619
15037620
15037621
15037622
15037623
15037624
15037625
15037626
15037627
15037628
15037629
15037630
15037631
15037632
15037633
15037634
15037635
15037636
15037637
15037638
15037639
15037640
15037641
15037642
15037643
15037644
15037645
15037646
15037647
15037648
15037649
15037650
15037651
15037652
15037653
15037654
15037655
15037656
15037657
15037658
15037659
15037660
15037661
15037662
15037663
15037664
15037665
15037666
15037667
15037668
15037669
15037670
15037671
15037672
15037673
15037674
15037675
15037676
15037677
15037678
15037679
15037680
15037681
15037682
15037683
15037684
15037685
15037686
15037687
15037688
15037689
15037690
15037691
15037692
15037693
15037694
15037695
15037696
15037697
15037698
15037699
15037700
15037701
15037702
15037703
15037704
15037705
15037706
15037707
15037708
15037709
15037710
15037711
15037712
15037713
15037714
15037715
15037716
15037717
15037718
15037719
15037720
15037721
15037722
15037723
15037724
15037725
15037726
15037727
15037728
15037729
15037730
15037731
15037732
15037733
15037734
15037735
15037736
15037737
15037738
15037739
15037740
15037741
15037742
15037743
15037744
15037745
15037746
15037747
15037748
15037749
15037750
15037751
15037752
15037753
15037754
15037755
15037756
15037757
15037758
15037759
15037760
15037761
15037762
15037763
15037764
15037765
15037766
15037767
15037768
15037769
15037770
15037771
15037772
15037773
15037774
15037775
15037776
15037777
15037778
15037779
15037780
15037781
15037782
15037783
15037784
15037785
15037786
15037787
15037788
15037789
15037790
15037791
15037792
15037793
15037794
15037795
15037796
15037797
15037798
15037799
15037800
15037801
15037802
15037803
15037804
15037805
15037806
15037807
15037808
15037809
15037810
15037811
15037812
15037813
15037814
15037815
15037816
15037817
15037818
15037819
15037820
15037821
15037822
15037823
15037824
15037825
15037826
15037827
15037828
15037829
15037830
15037831
15037832
15037833
15037834
15037835
15037836
15037837
15037838
15037839
15037840
15037841
15037842
15037843
15037844
15037845
15037846
15037847
15037848
15037849
15037850
15037851
15037852
15037853
15037854
15037855
15037856
15037857
15037858
15037859
15037860
15037861
15037862
15037863
15037864
15037865
15037866
15037867
15037868
15037869
15037870
15037871
15037872
15037873
15037874
15037875
15037876
15037877
15037878
15037879
15037880
15037881
15037882
15037883
15037884
15037885
15037886
15037887
15037888
15037889
15037890
15037891
15037892
15037893
15037894
15037895
15037896
15037897
15037898
15037899
15037900
15037901
15037902
15037903
15037904
15037905
15037906
15037907
15037908
15037909
15037910
15037911
15037912
15037913
15037914
15037915
15037916
15037917
15037918
15037919
15037920
15037921
15037922
15037923
15037924
15037925
15037926
15037927
15037928
15037929
15037930
15037931
15037932
15037933
15037934
15037935
15037936
15037937
15037938
15037939
15037940
15037941
15037942
15037943
15037944
15037945
15037946
15037947
15037948
15037949
15037950
15037951
15037952
15037953
15037954
15037955
15037956
15037957
15037958
15037959
15037960
15037961
15037962
15037963
15037964
15037965
15037966
15037967
15037968
15037969
15037970
15037971
15037972
15037973
15037974
15037975
15037976
15037977
15037978
15037979
15037980
15037981
15037982
15037983
15037984
15037985
15037986
15037987
15037988
15037989
15037990
15037991
15037992
15037993
15037994
15037995
15037996
15037997
15037998
15037999
15038000
15038001
15038002
15038003
15038004
15038005
15038006
15038007
15038008
15038009
15038010
15038011
15038012
15038013
15038014
15038015
15038016
15038017
15038018
15038019
15038020
15038021
15038022
15038023
15038024
15038025
15038026
15038027
15038028
15038029
15038030
15038031
15038032
15038033
15038034
15038035
15038036
15038037
15038038
15038039
15038040
15038041
15038042
15038043
15038044
15038045
15038046
15038047
15038048
15038049
15038050
15038051
15038052
15038053
15038054
15038055
15038056
15038057
15038058
15038059
15038060
15038061
15038062
15038063
15038064
15038065
15038066
15038067
15038068
15038069
15038070
15038071
15038072
15038073
15038074
15038075
15038076
15038077
15038078
15038079
15038080
15038081
15038082
15038083
15038084
15038085
15038086
15038087
15038088
15038089
15038090
15038091
15038092
15038093
15038094
15038095
15038096
15038097
15038098
15038099
15038100
15038101
15038102
15038103
15038104
15038105
15038106
15038107
15038108
15038109
15038110
15038111
15038112
15038113
15038114
15038115
15038116
15038117
15038118
15038119
15038120
15038121
15038122
15038123
15038124
15038125
15038126
15038127
15038128
15038129
15038130
15038131
15038132
15038133
15038134
15038135
15038136
15038137
15038138
15038139
15038140
15038141
15038142
15038143
15038144
15038145
15038146
15038147
15038148
15038149
15038150
15038151
15038152
15038153
15038154
15038155
15038156
15038157
15038158
15038159
15038160
15038161
15038162
15038163
15038164
15038165
15038166
15038167
15038168
15038169
15038170
15038171
15038172
15038173
15038174
15038175
15038176
15038177
15038178
15038179
15038180
15038181
15038182
15038183
15038184
15038185
15038186
15038187
15038188
15038189
15038190
15038191
15038192
15038193
15038194
15038195
15038196
15038197
15038198
15038199
15038200
15038201
15038202
15038203
15038204
15038205
15038206
15038207
15038208
15038209
15038210
15038211
15038212
15038213
15038214
15038215
15038216
15038217
15038218
15038219
15038220
15038221
15038222
15038223
15038224
15038225
15038226
15038227
15038228
15038229
15038230
15038231
15038232
15038233
15038234
15038235
15038236
15038237
15038238
15038239
15038240
15038241
15038242
15038243
15038244
15038245
15038246
15038247
15038248
15038249
15038250
15038251
15038252
15038253
15038254
15038255
15038256
15038257
15038258
15038259
15038260
15038261
15038262
15038263
15038264
15038265
15038266
15038267
15038268
15038269
15038270
15038271
15038272
15038273
15038274
15038275
15038276
15038277
15038278
15038279
15038280
15038281
15038282
15038283
15038284
15038285
15038286
15038287
15038288
15038289
15038290
15038291
15038292
15038293
15038294
15038295
15038296
15038297
15038298
15038299
15038300
15038301
15038302
15038303
15038304
15038305
15038306
15038307
15038308
15038309
15038310
15038311
15038312
15038313
15038314
15038315
15038316
15038317
15038318
15038319
15038320
15038321
15038322
15038323
15038324
15038325
15038326
15038327
15038328
15038329
15038330
15038331
15038332
15038333
15038334
15038335
15038336
15038337
15038338
15038339
15038340
15038341
15038342
15038343
15038344
15038345
15038346
15038347
15038348
15038349
15038350
15038351
15038352
15038353
15038354
15038355
15038356
15038357
15038358
15038359
15038360
15038361
15038362
15038363
15038364
15038365
15038366
15038367
15038368
15038369
15038370
15038371
15038372
15038373
15038374
15038375
15038376
15038377
15038378
15038379
15038380
15038381
15038382
15038383
15038384
15038385
15038386
15038387
15038388
15038389
15038390
15038391
15038392
15038393
15038394
15038395
15038396
15038397
15038398
15038399
15038400
15038401
15038402
15038403
15038404
15038405
15038406
15038407
15038408
15038409
15038410
15038411
15038412
15038413
15038414
15038415
15038416
15038417
15038418
15038419
15038420
15038421
15038422
15038423
15038424
15038425
15038426
15038427
15038428
15038429
15038430
15038431
15038432
15038433
15038434
15038435
15038436
15038437
15038438
15038439
15038440
15038441
15038442
15038443
15038444
15038445
15038446
15038447
15038448
15038449
15038450
15038451
15038452
15038453
15038454
15038455
15038456
15038457
15038458
15038459
15038460
15038461
15038462
15038463
15038464
15038465
15038466
15038467
15038468
15038469
15038470
15038471
15038472
15038473
15038474
15038475
15038476
15038477
15038478
15038479
15038480
15038481
15038482
15038483
15038484
15038485
15038486
15038487
15038488
15038489
15038490
15038491
15038492
15038493
15038494
15038495
15038496
15038497
15038498
15038499
15038500
15038501
15038502
15038503
15038504
15038505
15038506
15038507
15038508
15038509
15038510
15038511
15038512
15038513
15038514
15038515
15038516
15038517
15038518
15038519
15038520
15038521
15038522
15038523
15038524
15038525
15038526
15038527
15038528
15038529
15038530
15038531
15038532
15038533
15038534
15038535
15038536
15038537
15038538
15038539
15038540
15038541
15038542
15038543
15038544
15038545
15038546
15038547
15038548
15038549
15038550
15038551
15038552
15038553
15038554
15038555
15038556
15038557
15038558
15038559
15038560
15038561
15038562
15038563
15038564
15038565
15038566
15038567
15038568
15038569
15038570
15038571
15038572
15038573
15038574
15038575
15038576
15038577
15038578
15038579
15038580
15038581
15038582
15038583
15038584
15038585
15038586
15038587
15038588
15038589
15038590
15038591
15038592
15038593
15038594
15038595
15038596
15038597
15038598
15038599
15038600
15038601
15038602
15038603
15038604
15038605
15038606
15038607
15038608
15038609
15038610
15038611
15038612
15038613
15038614
15038615
15038616
15038617
15038618
15038619
15038620
15038621
15038622
15038623
15038624
15038625
15038626
15038627
15038628
15038629
15038630
15038631
15038632
15038633
15038634
15038635
15038636
15038637
15038638
15038639
15038640
15038641
15038642
15038643
15038644
15038645
15038646
15038647
15038648
15038649
15038650
15038651
15038652
15038653
15038654
15038655
15038656
15038657
15038658
15038659
15038660
15038661
15038662
15038663
15038664
15038665
15038666
15038667
15038668
15038669
15038670
15038671
15038672
15038673
15038674
15038675
15038676
15038677
15038678
15038679
15038680
15038681
15038682
15038683
15038684
15038685
15038686
15038687
15038688
15038689
15038690
15038691
15038692
15038693
15038694
15038695
15038696
15038697
15038698
15038699
15038700
15038701
15038702
15038703
15038704
15038705
15038706
15038707
15038708
15038709
15038710
15038711
15038712
15038713
15038714
15038715
15038716
15038717
15038718
15038719
15038720
15038721
15038722
15038723
15038724
15038725
15038726
15038727
15038728
15038729
15038730
15038731
15038732
15038733
15038734
15038735
15038736
15038737
15038738
15038739
15038740
15038741
15038742
15038743
15038744
15038745
15038746
15038747
15038748
15038749
15038750
15038751
15038752
15038753
15038754
15038755
15038756
15038757
15038758
15038759
15038760
15038761
15038762
15038763
15038764
15038765
15038766
15038767
15038768
15038769
15038770
15038771
15038772
15038773
15038774
15038775
15038776
15038777
15038778
15038779
15038780
15038781
15038782
15038783
15038784
15038785
15038786
15038787
15038788
15038789
15038790
15038791
15038792
15038793
15038794
15038795
15038796
15038797
15038798
15038799
15038800
15038801
15038802
15038803
15038804
15038805
15038806
15038807
15038808
15038809
15038810
15038811
15038812
15038813
15038814
15038815
15038816
15038817
15038818
15038819
15038820
15038821
15038822
15038823
15038824
15038825
15038826
15038827
15038828
15038829
15038830
15038831
15038832
15038833
15038834
15038835
15038836
15038837
15038838
15038839
15038840
15038841
15038842
15038843
15038844
15038845
15038846
15038847
15038848
15038849
15038850
15038851
15038852
15038853
15038854
15038855
15038856
15038857
15038858
15038859
15038860
15038861
15038862
15038863
15038864
15038865
15038866
15038867
15038868
15038869
15038870
15038871
15038872
15038873
15038874
15038875
15038876
15038877
15038878
15038879
15038880
15038881
15038882
15038883
15038884
15038885
15038886
15038887
15038888
15038889
15038890
15038891
15038892
15038893
15038894
15038895
15038896
15038897
15038898
15038899
15038900
15038901
15038902
15038903
15038904
15038905
15038906
15038907
15038908
15038909
15038910
15038911
15038912
15038913
15038914
15038915
15038916
15038917
15038918
15038919
15038920
15038921
15038922
15038923
15038924
15038925
15038926
15038927
15038928
15038929
15038930
15038931
15038932
15038933
15038934
15038935
15038936
15038937
15038938
15038939
15038940
15038941
15038942
15038943
15038944
15038945
15038946
15038947
15038948
15038949
15038950
15038951
15038952
15038953
15038954
15038955
15038956
15038957
15038958
15038959
15038960
15038961
15038962
15038963
15038964
15038965
15038966
15038967
15038968
15038969
15038970
15038971
15038972
15038973
15038974
15038975
15038976
15038977
15038978
15038979
15038980
15038981
15038982
15038983
15038984
15038985
15038986
15038987
15038988
15038989
15038990
15038991
15038992
15038993
15038994
15038995
15038996
15038997
15038998
15038999
15039000
15039001
15039002
15039003
15039004
15039005
15039006
15039007
15039008
15039009
15039010
15039011
15039012
15039013
15039014
15039015
15039016
15039017
15039018
15039019
15039020
15039021
15039022
15039023
15039024
15039025
15039026
15039027
15039028
15039029
15039030
15039031
15039032
15039033
15039034
15039035
15039036
15039037
15039038
15039039
15039040
15039041
15039042
15039043
15039044
15039045
15039046
15039047
15039048
15039049
15039050
15039051
15039052
15039053
15039054
15039055
15039056
15039057
15039058
15039059
15039060
15039061
15039062
15039063
15039064
15039065
15039066
15039067
15039068
15039069
15039070
15039071
15039072
15039073
15039074
15039075
15039076
15039077
15039078
15039079
15039080
15039081
15039082
15039083
15039084
15039085
15039086
15039087
15039088
15039089
15039090
15039091
15039092
15039093
15039094
15039095
15039096
15039097
15039098
15039099
15039100
15039101
15039102
15039103
15039104
15039105
15039106
15039107
15039108
15039109
15039110
15039111
15039112
15039113
15039114
15039115
15039116
15039117
15039118
15039119
15039120
15039121
15039122
15039123
15039124
15039125
15039126
15039127
15039128
15039129
15039130
15039131
15039132
15039133
15039134
15039135
15039136
15039137
15039138
15039139
15039140
15039141
15039142
15039143
15039144
15039145
15039146
15039147
15039148
15039149
15039150
15039151
15039152
15039153
15039154
15039155
15039156
15039157
15039158
15039159
15039160
15039161
15039162
15039163
15039164
15039165
15039166
15039167
15039168
15039169
15039170
15039171
15039172
15039173
15039174
15039175
15039176
15039177
15039178
15039179
15039180
15039181
15039182
15039183
15039184
15039185
15039186
15039187
15039188
15039189
15039190
15039191
15039192
15039193
15039194
15039195
15039196
15039197
15039198
15039199
15039200
15039201
15039202
15039203
15039204
15039205
15039206
15039207
15039208
15039209
15039210
15039211
15039212
15039213
15039214
15039215
15039216
15039217
15039218
15039219
15039220
15039221
15039222
15039223
15039224
15039225
15039226
15039227
15039228
15039229
15039230
15039231
15039232
15039233
15039234
15039235
15039236
15039237
15039238
15039239
15039240
15039241
15039242
15039243
15039244
15039245
15039246
15039247
15039248
15039249
15039250
15039251
15039252
15039253
15039254
15039255
15039256
15039257
15039258
15039259
15039260
15039261
15039262
15039263
15039264
15039265
15039266
15039267
15039268
15039269
15039270
15039271
15039272
15039273
15039274
15039275
15039276
15039277
15039278
15039279
15039280
15039281
15039282
15039283
15039284
15039285
15039286
15039287
15039288
15039289
15039290
15039291
15039292
15039293
15039294
15039295
15039296
15039297
15039298
15039299
15039300
15039301
15039302
15039303
15039304
15039305
15039306
15039307
15039308
15039309
15039310
15039311
15039312
15039313
15039314
15039315
15039316
15039317
15039318
15039319
15039320
15039321
15039322
15039323
15039324
15039325
15039326
15039327
15039328
15039329
15039330
15039331
15039332
15039333
15039334
15039335
15039336
15039337
15039338
15039339
15039340
15039341
15039342
15039343
15039344
15039345
15039346
15039347
15039348
15039349
15039350
15039351
15039352
15039353
15039354
15039355
15039356
15039357
15039358
15039359
15039360
15039361
15039362
15039363
15039364
15039365
15039366
15039367
15039368
15039369
15039370
15039371
15039372
15039373
15039374
15039375
15039376
15039377
15039378
15039379
15039380
15039381
15039382
15039383
15039384
15039385
15039386
15039387
15039388
15039389
15039390
15039391
15039392
15039393
15039394
15039395
15039396
15039397
15039398
15039399
15039400
15039401
15039402
15039403
15039404
15039405
15039406
15039407
15039408
15039409
15039410
15039411
15039412
15039413
15039414
15039415
15039416
15039417
15039418
15039419
15039420
15039421
15039422
15039423
15039424
15039425
15039426
15039427
15039428
15039429
15039430
15039431
15039432
15039433
15039434
15039435
15039436
15039437
15039438
15039439
15039440
15039441
15039442
15039443
15039444
15039445
15039446
15039447
15039448
15039449
15039450
15039451
15039452
15039453
15039454
15039455
15039456
15039457
15039458
15039459
15039460
15039461
15039462
15039463
15039464
15039465
15039466
15039467
15039468
15039469
15039470
15039471
15039472
15039473
15039474
15039475
15039476
15039477
15039478
15039479
15039480
15039481
15039482
15039483
15039484
15039485
15039486
15039487
15039488
15039489
15039490
15039491
15039492
15039493
15039494
15039495
15039496
15039497
15039498
15039499
15039500
15039501
15039502
15039503
15039504
15039505
15039506
15039507
15039508
15039509
15039510
15039511
15039512
15039513
15039514
15039515
15039516
15039517
15039518
15039519
15039520
15039521
15039522
15039523
15039524
15039525
15039526
15039527
15039528
15039529
15039530
15039531
15039532
15039533
15039534
15039535
15039536
15039537
15039538
15039539
15039540
15039541
15039542
15039543
15039544
15039545
15039546
15039547
15039548
15039549
15039550
15039551
15039552
15039553
15039554
15039555
15039556
15039557
15039558
15039559
15039560
15039561
15039562
15039563
15039564
15039565
15039566
15039567
15039568
15039569
15039570
15039571
15039572
15039573
15039574
15039575
15039576
15039577
15039578
15039579
15039580
15039581
15039582
15039583
15039584
15039585
15039586
15039587
15039588
15039589
15039590
15039591
15039592
15039593
15039594
15039595
15039596
15039597
15039598
15039599
15039600
15039601
15039602
15039603
15039604
15039605
15039606
15039607
15039608
15039609
15039610
15039611
15039612
15039613
15039614
15039615
15039616
15039617
15039618
15039619
15039620
15039621
15039622
15039623
15039624
15039625
15039626
15039627
15039628
15039629
15039630
15039631
15039632
15039633
15039634
15039635
15039636
15039637
15039638
15039639
15039640
15039641
15039642
15039643
15039644
15039645
15039646
15039647
15039648
15039649
15039650
15039651
15039652
15039653
15039654
15039655
15039656
15039657
15039658
15039659
15039660
15039661
15039662
15039663
15039664
15039665
15039666
15039667
15039668
15039669
15039670
15039671
15039672
15039673
15039674
15039675
15039676
15039677
15039678
15039679
15039680
15039681
15039682
15039683
15039684
15039685
15039686
15039687
15039688
15039689
15039690
15039691
15039692
15039693
15039694
15039695
15039696
15039697
15039698
15039699
15039700
15039701
15039702
15039703
15039704
15039705
15039706
15039707
15039708
15039709
15039710
15039711
15039712
15039713
15039714
15039715
15039716
15039717
15039718
15039719
15039720
15039721
15039722
15039723
15039724
15039725
15039726
15039727
15039728
15039729
15039730
15039731
15039732
15039733
15039734
15039735
15039736
15039737
15039738
15039739
15039740
15039741
15039742
15039743
15039744
15039745
15039746
15039747
15039748
15039749
15039750
15039751
15039752
15039753
15039754
15039755
15039756
15039757
15039758
15039759
15039760
15039761
15039762
15039763
15039764
15039765
15039766
15039767
15039768
15039769
15039770
15039771
15039772
15039773
15039774
15039775
15039776
15039777
15039778
15039779
15039780
15039781
15039782
15039783
15039784
15039785
15039786
15039787
15039788
15039789
15039790
15039791
15039792
15039793
15039794
15039795
15039796
15039797
15039798
15039799
15039800
15039801
15039802
15039803
15039804
15039805
15039806
15039807
15039808
15039809
15039810
15039811
15039812
15039813
15039814
15039815
15039816
15039817
15039818
15039819
15039820
15039821
15039822
15039823
15039824
15039825
15039826
15039827
15039828
15039829
15039830
15039831
15039832
15039833
15039834
15039835
15039836
15039837
15039838
15039839
15039840
15039841
15039842
15039843
15039844
15039845
15039846
15039847
15039848
15039849
15039850
15039851
15039852
15039853
15039854
15039855
15039856
15039857
15039858
15039859
15039860
15039861
15039862
15039863
15039864
15039865
15039866
15039867
15039868
15039869
15039870
15039871
15039872
15039873
15039874
15039875
15039876
15039877
15039878
15039879
15039880
15039881
15039882
15039883
15039884
15039885
15039886
15039887
15039888
15039889
15039890
15039891
15039892
15039893
15039894
15039895
15039896
15039897
15039898
15039899
15039900
15039901
15042483
15042484
15042485
15042486
15042487
15042488
15042489
15042490
15042491
15042492
15042493
15042494
15042495
15042496
15042497
15042498
15042499
15042500
15042501
15042502
15042503
15042504
15042505
15042506
15042507
15042508
15042509
15042510
15042511
15042512
15042513
15042514
15042515
15042516
15042517
15042518
15042519
15042520
15042521
15042522
15042523
15042524
15042525
15042526
15042527
15042528
15042529
15042530
15042531
15042532
15042533
15042534
15042535
15042536
15042537
15042538
15042539
15042540
15042541
15042542
15042543
15042544
15042545
15042546
15042547
15042548
15042549
15042550
15042551
15042552
15042553
15042554
15042555
15042556
15042557
15042558
15042559
15042560
15042561
15042562
15042563
15042564
15042565
15042566
15042567
15042568
15042569
15042570
15042571
15042572
15042573
15042574
15042575
15042576
15042577
15042578
15042579
15042580
15042581
15042582
15042583
15042584
15042585
15042586
15042587
15042588
15042589
15042590
15042591
15042592
15042593
15042594
15042595
15042596
15042597
15042598
15042599
15042600
15042601
15042602
15042603
15042604
15042605
15042606
15042607
15042608
15042609
15042610
15042611
15042612
15042613
15042614
15042615
15042616
15042617
15042618
15042619
15042620
15042621
15042622
15042623
15042624
15042625
15042626
15042627
15042628
15042629
15042630
15042631
15042632
15042633
15042634
15042635
15042636
15042637
15042638
15042639
15042640
15042641
15042642
15042643
15042644
15042645
15042646
15042647
15042648
15042649
15042650
15042651
1504265